<svg xmlns="http://www.w3.org/2000/svg" width="54" height="46" fill="none" viewBox="0 0 54 46">
  <path fill="#fff" d="M40.47 0c-6.399 10.896-9.934 16.33-13.5 16.33-3.564 0-7.1-5.434-13.47-16.33 6.37 10.896 9.41 16.646 7.627 19.665C19.344 22.684 12.77 23 0 23c13.237 0 19.812.316 21.302 3.651C22.704 29.756 19.666 35.477 13.5 46c6.4-10.896 9.935-16.33 13.5-16.33 3.565 0 7.1 5.434 13.5 16.33-6.78-11.586-9.76-17.336-7.247-20.211C35.474 23.259 42.02 23 54 23c-13.5 0-20.075-.345-21.39-3.881-1.198-3.163 1.841-8.855 7.86-19.119Z"/>
</svg>
