<svg fill="#ffffff" version="1.1" id="Capa_1" xmlns="http://www.w3.org/2000/svg" xmlns:xlink="http://www.w3.org/1999/xlink" viewBox="0 0 37.314 37.315" xml:space="preserve"><g id="SVGRepo_bgCarrier" stroke-width="0"></g><g id="SVGRepo_tracerCarrier" stroke-linecap="round" stroke-linejoin="round"></g><g id="SVGRepo_iconCarrier"> <g> <path d="M21.861,16.306l-1.287,1.286l-0.852-0.852l1.285-1.286l-1.322-1.323l-1.287,1.286l-2.018-2.019l-1.08,1.081l0.309,0.309 c0.205,0.205,0.324,0.363,0.359,0.474c0.037,0.109,0.037,0.212,0.004,0.304c-0.033,0.095-0.168,0.257-0.398,0.487l-4.359,4.358 c-0.227,0.229-0.389,0.361-0.483,0.396c-0.097,0.036-0.195,0.036-0.306-0.002c-0.108-0.038-0.266-0.156-0.471-0.362l-0.309-0.31 l-1.082,1.081l2.02,2.021l-1.285,1.283l1.324,1.324l1.285-1.286l0.754,0.754c0.031,0.033,0.064,0.063,0.098,0.098l-1.287,1.287 l1.324,1.322l1.396-1.396c0.264,0.178,0.514,0.319,0.748,0.42c0.639,0.274,1.258,0.361,1.859,0.261 c0.596-0.1,1.104-0.354,1.518-0.77c0.348-0.349,0.582-0.744,0.697-1.191c0.119-0.447,0.115-0.888-0.006-1.324 c-0.082-0.307-0.261-0.688-0.533-1.147c0.457,0.226,0.879,0.354,1.264,0.384c0.387,0.029,0.75-0.016,1.092-0.136 c0.34-0.122,0.643-0.312,0.9-0.569c0.354-0.354,0.575-0.784,0.663-1.29c0.087-0.507,0.017-1.034-0.215-1.579 c-0.088-0.213-0.222-0.438-0.377-0.668l1.379-1.378L21.861,16.306z M16.926,23.543c-0.053,0.271-0.194,0.521-0.428,0.751 c-0.271,0.272-0.58,0.429-0.928,0.471s-0.662-0.016-0.941-0.172c-0.279-0.154-0.586-0.398-0.916-0.729l-0.572-0.57 c-0.188-0.189-0.295-0.318-0.315-0.38c-0.022-0.065-0.019-0.132,0.017-0.203c0.024-0.056,0.157-0.205,0.393-0.447l1.691-1.691 l1.012,1.012c0.443,0.443,0.731,0.813,0.867,1.113C16.935,22.993,16.976,23.277,16.926,23.543z M19.547,20.945 c-0.199,0.196-0.428,0.318-0.686,0.361c-0.262,0.042-0.535-0.006-0.824-0.146c-0.291-0.139-0.658-0.435-1.107-0.881l-0.856-0.858 l1.905-1.905l0.855,0.857c0.5,0.5,0.818,0.878,0.949,1.134c0.133,0.255,0.18,0.508,0.137,0.756 C19.875,20.51,19.752,20.739,19.547,20.945z M35.97,2.239c-0.049-0.472-0.422-0.844-0.895-0.893l-13.09-1.341 c-0.3-0.03-0.597,0.074-0.81,0.288L0.294,21.174c-0.391,0.393-0.391,1.023,0,1.414l14.431,14.434 c0.188,0.188,0.44,0.293,0.707,0.293c0.266,0,0.52-0.105,0.707-0.293l20.883-20.883c0.213-0.212,0.317-0.51,0.286-0.809 L35.97,2.239z M15.431,34.9L2.415,21.881L22.256,2.042l11.807,1.209l1.21,11.808L15.431,34.9z M30.676,6.639 c1.281,1.281,1.281,3.356,0,4.637c-1.281,1.28-3.355,1.28-4.637,0c-1.281-1.281-1.281-3.356,0-4.637 C27.318,5.36,29.394,5.359,30.676,6.639z"></path> </g> </g></svg>